<?xml version="1.0" standalone="no"?>
<!DOCTYPE svg PUBLIC "-//W3C//DTD SVG 20010904//EN"
 "http://www.w3.org/TR/2001/REC-SVG-20010904/DTD/svg10.dtd">
<svg version="1.0" xmlns="http://www.w3.org/2000/svg"
 width="500.000000pt" height="500.000000pt" viewBox="0 0 500.000000 500.000000"
 preserveAspectRatio="xMidYMid meet">

<!-- Arka planı mat siyah -->
<rect width="100%" height="100%" fill="#0D0D0D"/>

<g transform="translate(0.000000,500.000000) scale(0.100000,-0.100000)"
fill="hsl(38, 61%, 73%)" stroke="hsl(38, 61%, 73%)" stroke-width="6" filter="url(#f1)">
<path d="M0 2500 l0 -2500 2500 0 2500 0 0 2500 0 2500 -2500 0 -2500 0 0
-2500z m2591 2181 c25 -19 45 -22 152 -25 92 -3 138 -10 187 -26 37 -13 96
-23 138 -25 68 -2 76 -5 108 -36 19 -18 34 -38 34 -45 0 -7 22 -28 48 -47 26
-20 72 -62 102 -94 30 -32 74 -72 98 -91 l43 -33 26 21 c18 14 41 20 74 20 87
0 145 -80 165 -229 5 -42 9 -48 45 -63 34 -14 44 -27 69 -82 78 -172 79 -366
4 -521 l-26 -53 26 -54 c37 -77 50 -146 36 -200 -28 -107 -104 -186 -242 -252
-85 -40 -86 -41 -80 -71 4 -16 7 -70 7 -120 0 -81 -3 -97 -33 -160 -41 -88
-124 -168 -226 -220 -63 -32 -87 -38 -184 -47 l-111 -11 -10 -46 c-6 -25 -15
-122 -21 -216 -6 -93 -13 -183 -17 -200 l-6 -30 22 28 c50 62 152 99 321 118
52 6 126 17 163 24 60 13 73 19 107 57 37 43 38 43 105 43 64 0 68 -1 101 -37
30 -34 34 -44 34 -93 0 -31 -6 -68 -14 -84 -19 -35 -99 -109 -137 -125 l-30
-13 40 -15 c29 -12 49 -29 68 -62 16 -25 34 -46 42 -46 7 0 32 -19 56 -42 23
-24 56 -51 73 -60 17 -9 40 -35 51 -57 45 -87 17 -156 -81 -200 l-61 -28 79
-5 c130 -9 222 -68 275 -176 23 -44 24 -57 24 -242 0 -183 -1 -198 -23 -237
-45 -86 -110 -139 -197 -164 -44 -13 -2987 -12 -3035 1 -56 15 -129 69 -166
123 -45 66 -56 131 -52 310 3 132 6 158 26 202 51 110 146 174 275 183 76 5
78 6 48 18 -84 35 -103 48 -121 85 -11 21 -20 48 -20 59 0 49 60 129 108 145
9 3 25 18 34 35 9 16 33 36 52 44 20 8 36 20 36 25 0 19 59 78 90 91 l31 13
-43 24 c-60 34 -97 71 -119 118 -50 107 10 215 119 215 53 0 76 -12 122 -60
34 -36 38 -38 155 -54 290 -40 323 -49 391 -109 l47 -41 -7 54 c-5 30 -10 93
-12 140 -6 136 -16 243 -24 266 -7 18 -22 22 -118 32 -121 12 -173 31 -257 92
-145 106 -212 255 -186 412 6 39 10 72 9 73 -2 1 -44 23 -94 49 -99 51 -172
114 -207 180 -32 61 -30 172 5 248 29 63 29 67 -18 198 -38 105 -38 248 0 366
32 100 61 144 109 167 31 14 37 22 37 49 0 65 30 144 71 184 34 34 44 38 88
38 33 0 57 -6 69 -17 10 -9 22 -17 25 -17 18 0 90 62 127 108 22 28 70 74 107
102 36 28 74 63 84 79 26 44 58 61 111 61 45 0 173 30 200 46 7 5 68 9 136 10
98 2 128 6 142 19 43 39 152 42 201 6z"/>
<path d="M2137 4481 c-3 -14 0 -21 9 -21 16 0 19 -16 5 -24 -14 -9 -42 5 -34
17 4 7 0 8 -11 4 -10 -4 -23 -7 -29 -8 -7 0 1 -6 17 -14 29 -12 29 -13 8 -24
-14 -8 -22 -8 -22 -1 0 17 -17 11 -23 -9 -3 -11 -16 -20 -35 -23 -33 -5 -46 9
-31 33 7 11 9 10 9 -5 0 -11 2 -17 5 -14 8 8 -5 58 -15 58 -13 0 -22 -72 -11
-83 6 -6 11 -22 11 -34 0 -20 -2 -22 -14 -11 -10 9 -11 15 -2 20 20 14 -20 9
-55 -7 l-34 -14 37 -1 c37 0 57 -13 38 -25 -6 -4 -17 -1 -25 5 -24 20 -19 -13
5 -35 11 -10 20 -25 20 -34 -1 -14 -3 -13 -15 2 -18 25 -55 14 -55 -17 0 -12
-5 -27 -12 -34 -12 -12 -10 -13 32 -25 8 -2 21 3 29 10 7 8 16 11 19 8 4 -3 1
-10 -7 -14 -7 -5 -11 -12 -9 -17 3 -8 -7 -15 -120 -86 -142 -89 -219 -183
-406 -497 -193 -323 -213 -369 -195 -437 19 -67 61 -100 243 -189 206 -101
550 -314 534 -331 -3 -2 -43 12 -91 31 -48 19 -95 35 -104 34 -14 0 -15 -2 -3
-6 23 -8 229 -90 273 -108 31 -13 36 -19 27 -29 -9 -12 -22 -9 -73 16 -84 41
-140 62 -286 111 -92 30 -120 42 -105 48 17 7 17 8 1 8 -10 1 -36 10 -58 21
-49 26 -54 18 -47 -80 9 -126 78 -223 193 -276 38 -18 85 -27 166 -35 62 -6
126 -17 142 -25 39 -21 56 -68 67 -186 8 -91 11 -104 45 -156 35 -52 36 -54
10 -34 -15 12 -31 22 -34 22 -22 0 21 -289 54 -365 17 -39 18 -39 25 -15 7 23
8 23 9 3 1 -12 6 -34 11 -49 10 -26 11 -26 25 -8 14 18 14 18 15 -8 0 -14 10
-48 22 -75 l22 -48 4 33 c5 45 17 40 32 -13 15 -55 40 -81 40 -41 0 37 10 32
50 -24 63 -89 91 -88 161 9 l39 54 0 -31 c0 -46 16 -39 36 15 23 63 34 74 34
34 0 -49 17 -28 41 52 19 60 23 68 29 47 7 -30 16 -19 26 35 7 36 8 37 14 15
6 -25 6 -25 18 -4 37 69 90 384 64 384 -5 0 -18 -9 -30 -20 -31 -29 -27 -16 9
35 27 37 32 54 39 139 9 103 45 200 79 211 9 2 68 9 131 15 133 12 189 34 268
105 67 61 96 128 96 222 0 40 -2 75 -6 78 -8 8 -78 -26 -73 -35 3 -4 -37 -22
-88 -39 -184 -64 -263 -94 -329 -126 -56 -27 -70 -30 -79 -19 -9 11 -6 16 12
23 13 5 67 27 119 48 52 22 135 50 184 63 49 13 84 26 79 27 -6 2 -51 -7 -99
-21 -109 -32 -123 -32 -87 -2 44 36 331 206 403 239 140 62 193 93 230 133 75
82 70 114 -56 343 -203 369 -328 537 -469 634 -101 68 -159 122 -123 115 9 -2
14 11 16 39 3 38 1 42 -15 36 -10 -4 -20 -10 -23 -14 -3 -4 -18 -5 -35 -1 -26
5 -27 6 -10 14 16 7 15 8 -7 5 -16 -3 -28 0 -28 6 0 6 19 7 50 4 48 -6 50 -5
40 13 -6 11 -13 20 -16 20 -3 0 -3 -4 1 -9 3 -5 -21 -10 -55 -10 -33 0 -60 4
-60 9 0 4 10 6 23 3 18 -5 20 -3 10 8 -18 18 -80 -13 -93 -47 -19 -48 -12 -71
28 -96 29 -18 51 -23 103 -23 l66 0 78 -85 c43 -47 103 -116 133 -155 31 -38
73 -92 95 -118 l39 -48 -37 15 c-21 9 -40 16 -43 16 -4 0 24 -30 60 -67 104
-105 232 -332 214 -378 -6 -16 -25 -12 -113 24 -29 11 -53 19 -53 16 0 -2 21
-19 47 -36 79 -55 123 -99 123 -125 0 -13 -14 -38 -31 -56 l-30 -33 26 41 c24
38 26 74 4 74 -4 0 -22 -21 -40 -47 -31 -46 -56 -73 -69 -73 -4 0 -12 45 -18
100 -11 93 -32 160 -50 160 -4 0 -18 10 -32 21 l-25 20 34 -6 33 -7 -18 32
c-20 33 -127 140 -203 201 l-43 36 17 33 c16 31 17 102 2 117 -3 3 -19 -10
-36 -29 -17 -18 -31 -28 -31 -22 0 6 7 17 15 24 8 7 15 21 15 32 0 14 5 18 14
15 9 -4 13 -1 10 6 -2 7 -23 21 -46 31 -39 16 -41 19 -24 31 10 8 25 11 34 8
10 -4 13 -2 8 5 -4 7 -2 12 5 12 10 0 10 3 2 11 -9 9 -21 6 -48 -10 -20 -11
-46 -21 -57 -21 -45 0 -128 -34 -158 -65 -22 -23 -33 -46 -39 -84 -5 -35 -17
-61 -34 -79 -28 -29 -48 -92 -29 -92 6 0 12 14 14 31 3 29 4 29 23 14 17 -14
17 -16 3 -11 -10 3 -18 1 -18 -4 0 -15 63 -12 103 5 41 17 61 19 35 4 -31 -17
-20 -27 22 -19 24 4 40 3 40 -2 0 -13 56 -1 98 20 l34 17 54 -60 c101 -111
130 -163 149 -267 9 -51 18 -125 18 -165 2 -63 -1 -74 -23 -99 -27 -29 -137
-84 -299 -149 -58 -23 -106 -46 -108 -52 -3 -7 10 -14 29 -16 l33 -5 -35 2
c-40 1 -55 23 -95 132 -40 111 -28 195 27 189 13 -1 15 0 6 2 -10 2 -18 9 -18
14 0 11 38 2 57 -13 24 -19 119 32 109 58 -3 8 1 14 9 14 11 0 15 11 15 36 0
39 -5 38 69 18 16 -5 22 -4 18 4 -4 5 -25 13 -46 17 -26 4 -45 15 -55 31 -19
28 -57 49 -109 58 -29 6 -37 4 -31 -5 5 -9 0 -10 -20 -5 -29 7 -70 -10 -100
-43 -11 -12 -30 -21 -43 -21 -31 0 -93 -26 -93 -40 0 -13 60 -50 83 -50 27 0
20 16 -13 30 -35 15 -38 25 -9 41 25 13 82 4 99 -16 14 -17 30 -20 30 -5 0 6
-7 10 -15 10 -8 0 -15 4 -15 10 0 5 8 7 18 5 9 -3 5 1 -10 8 -44 21 -20 36 57
36 87 -1 105 2 105 14 0 5 7 3 16 -4 14 -12 14 -14 -3 -20 -16 -7 -16 -8 5
-15 12 -3 22 -11 22 -16 0 -5 5 -6 10 -3 6 3 10 2 10 -4 0 -5 -10 -13 -22 -17
l-23 -8 25 -7 c25 -7 25 -7 2 -8 -13 -1 -21 -5 -18 -10 3 -5 -1 -11 -9 -15
-17 -6 -27 7 -19 27 3 8 1 18 -5 22 -6 3 -11 -1 -11 -9 0 -9 -6 -13 -14 -10
-8 3 -23 -4 -33 -15 -14 -17 -24 -20 -53 -15 -19 4 -47 13 -62 20 -35 18 -37
18 -35 -6 1 -15 9 -20 32 -21 16 0 39 -4 50 -9 13 -6 5 -7 -24 -3 -35 5 -43 3
-39 -8 2 -8 16 -15 31 -17 l27 -3 -26 -27 c-45 -48 -56 -78 -49 -140 5 -50 4
-54 -7 -32 -11 22 -13 10 -18 -91 -6 -144 -21 -174 -79 -164 -26 4 -51 1 -75
-9 -20 -9 -51 -22 -69 -30 -31 -14 -37 -13 -83 8 -27 13 -71 26 -97 30 -27 4
-59 17 -74 30 -26 22 -27 28 -31 144 -3 67 -8 119 -13 116 -5 -3 -9 16 -9 41
0 26 -5 56 -12 68 -12 23 -85 115 -103 130 -6 5 -3 7 7 4 10 -4 31 8 56 31 72
67 78 164 14 225 l-29 28 1 -30 c1 -29 26 -55 26 -28 0 9 3 8 9 -1 4 -7 3 -30
-2 -51 -9 -35 -12 -37 -27 -22 -11 11 -14 20 -8 28 10 12 3 33 -10 33 -4 0
-12 -10 -17 -22 -6 -14 -21 -24 -37 -26 -16 -2 -28 -9 -28 -18 0 -18 5 -18 36
3 21 13 27 14 34 3 4 -7 13 -9 19 -6 6 4 11 3 11 -2 0 -6 -7 -13 -16 -16 -22
-8 -26 -8 -19 4 7 11 -8 14 -18 4 -8 -8 16 -33 26 -27 4 2 7 0 7 -5 0 -13 -54
-23 -58 -11 -2 5 -10 9 -17 9 -7 0 -15 9 -18 20 -3 11 -12 20 -21 20 -19 0
-21 -16 -3 -23 6 -3 -3 -8 -21 -12 -25 -6 -30 -11 -22 -20 8 -10 2 -15 -30
-20 -28 -5 -40 -11 -36 -20 3 -9 -2 -11 -15 -8 -24 7 -35 23 -21 32 7 4 -3 22
-24 46 l-35 40 7 -35 c15 -79 106 -140 208 -140 39 0 46 -4 67 -37 66 -102 64
-157 -11 -315 -19 -40 -26 -48 -49 -47 -23 2 -24 2 -3 6 48 9 18 32 -110 83
-159 62 -256 110 -281 138 -28 31 -25 160 8 303 15 66 25 87 78 157 40 53 51
60 62 42 3 -5 13 -10 22 -10 9 0 14 3 10 6 -3 4 4 15 16 25 25 21 20 23 -17 9
-14 -5 -28 -6 -30 -1 -3 4 14 14 37 21 23 8 53 23 67 35 14 13 32 21 40 18 8
-2 2 7 -15 21 -34 29 -90 35 -121 12 -18 -14 -18 -15 6 -14 14 1 30 6 37 11
13 10 53 0 53 -12 0 -9 -64 -61 -75 -61 -3 0 -3 11 1 24 6 24 -10 44 -21 26
-3 -5 -1 -10 6 -10 10 0 10 -2 0 -12 -10 -11 -15 -10 -25 4 -10 13 -15 15 -24
6 -15 -15 -15 -35 0 -44 8 -5 9 -2 5 9 -4 11 -1 17 8 17 32 0 10 -28 -68 -86
-71 -52 -155 -140 -144 -150 2 -2 19 1 38 6 l34 9 -29 -22 c-16 -12 -38 -29
-48 -37 -16 -13 -24 -41 -37 -133 -16 -117 -16 -117 -37 -102 -12 8 -35 35
-50 60 -33 51 -54 58 -54 18 0 -17 12 -40 33 -62 l32 -34 -38 28 c-72 53 -60
93 55 180 37 27 65 51 64 53 -2 1 -25 -7 -52 -19 -27 -12 -62 -25 -78 -30
l-29 -8 5 44 c11 96 136 293 235 372 l66 52 24 -19 c34 -26 77 -34 118 -20 42
14 65 44 65 85 -1 52 -41 85 -105 85 -35 0 -94 -23 -96 -38 -1 -4 -3 -18 -4
-31 -2 -25 -29 -51 -86 -85 -34 -20 -42 -31 116 166 30 37 100 105 157 152 96
79 130 100 97 59 -12 -15 -12 -16 4 -10 11 4 17 2 17 -8 0 -8 7 -15 16 -15 9
0 12 -5 8 -12 -5 -8 -2 -9 9 -5 9 3 19 2 22 -4 4 -5 2 -8 -3 -7 -6 2 -9 -1 -8
-7 0 -5 17 -9 36 -8 l35 2 -37 -16 c-38 -15 -46 -27 -28 -38 6 -3 10 1 10 9 0
9 4 16 9 16 5 0 18 3 28 7 16 6 17 5 3 -12 -16 -20 -17 -20 34 1 9 3 15 -5 19
-25 4 -16 16 -35 29 -42 22 -12 22 -12 5 14 -19 29 -23 72 -6 61 6 -3 29 -6
50 -6 22 1 37 -3 34 -8 -3 -5 -13 -6 -22 -3 -13 5 -15 2 -10 -11 4 -10 7 -22
7 -28 0 -6 14 6 30 27 17 21 30 31 30 23 0 -8 7 -23 15 -34 14 -18 14 -18 8 4
-3 13 -1 22 6 22 6 0 11 7 11 16 0 9 6 14 13 11 6 -2 11 -12 11 -21 -1 -9 2
-16 7 -16 14 0 11 48 -3 53 -7 2 2 7 20 11 17 4 32 12 32 18 0 6 7 8 15 4 8
-3 15 -1 15 4 0 6 9 10 21 10 36 0 58 18 52 42 -6 26 -29 48 -46 44 -7 -2 -9
-1 -4 1 4 3 5 9 1 14 -3 5 10 10 28 10 30 2 31 2 6 6 -16 2 -28 7 -29 11 0 4
-2 15 -4 25 -2 10 3 21 11 24 21 8 17 25 -4 19 -14 -5 -22 1 -31 20 -7 15 -8
30 -4 33 5 3 6 20 2 36 -6 28 -7 29 -14 8 -8 -26 -9 -27 -36 -12 -11 5 -17 14
-14 19 3 4 -8 11 -25 15 -16 4 -30 10 -30 15 0 4 -19 11 -42 14 -30 5 -38 10
-28 15 26 14 80 21 80 11 0 -6 3 -9 8 -9 20 3 23 -2 11 -18 -12 -14 -12 -16 1
-11 17 5 26 46 13 58 -4 4 -35 2 -68 -5 -55 -11 -62 -11 -84 6 -31 25 -49 24
-26 -1 10 -11 24 -20 32 -20 8 0 11 -4 8 -10 -11 -18 -55 -12 -55 8 -1 9 -7
28 -14 41 -13 23 -13 23 -19 2z m119 -80 c5 -5 23 -11 39 -13 17 -2 29 -8 28
-15 -2 -7 7 -18 20 -24 21 -12 21 -11 7 6 -14 17 -14 17 6 7 16 -8 20 -19 17
-44 -1 -18 0 -27 3 -20 3 6 10 10 15 6 5 -3 9 3 9 13 0 14 3 12 13 -7 16 -31
18 -63 4 -72 -7 -4 -7 -12 2 -22 15 -17 11 -68 -5 -73 -17 -6 -27 29 -12 39 8
5 9 8 2 8 -6 0 -17 -7 -24 -15 -11 -13 -9 -20 10 -40 l23 -25 -21 0 c-12 0
-22 -4 -22 -10 0 -5 -10 -10 -22 -10 -20 -1 -21 -2 -8 -13 14 -11 14 -14 -2
-29 -17 -17 -18 -17 -28 2 -8 16 -7 24 5 36 8 8 15 19 15 24 0 5 8 11 18 13
15 4 15 5 0 6 -9 0 -20 -3 -23 -9 -3 -5 -11 -10 -16 -10 -6 0 -7 5 -4 10 13
21 -30 9 -57 -17 -25 -24 -26 -27 -10 -39 13 -10 15 -17 6 -30 -6 -10 -17 -20
-25 -22 -8 -2 -5 3 6 11 15 12 17 18 8 28 -9 9 -19 9 -44 0 -42 -15 -52 -4
-11 11 30 12 52 38 31 38 -6 0 -7 5 -4 10 3 6 -1 13 -10 16 -9 4 -15 14 -14
23 3 30 -1 42 -11 36 -5 -3 -10 1 -10 9 0 19 8 20 40 1 28 -16 84 -20 76 -6
-4 5 0 12 6 14 8 3 6 6 -4 6 -10 1 -22 9 -27 20 -8 14 -5 23 14 41 40 38 42
110 3 110 -6 0 -6 -6 1 -14 9 -11 9 -15 -1 -19 -8 -4 -7 -6 5 -6 30 -2 16 -34
-20 -45 -13 -4 -20 -12 -17 -21 7 -16 -36 -31 -61 -21 -8 3 -15 1 -15 -4 0
-16 -26 -12 -41 6 -8 9 -21 13 -35 10 -13 -4 -26 -2 -29 4 -4 6 1 7 12 3 10
-3 15 -3 11 1 -10 11 25 43 41 38 10 -4 13 0 9 16 -7 26 7 29 20 6 11 -19 44
-15 49 6 4 13 3 13 -6 0 -10 -13 -12 -13 -21 0 -20 30 -6 39 31 20 25 -14 24
-34 -3 -48 -13 -6 -17 -11 -10 -11 21 -1 52 19 52 34 0 18 -57 58 -70 50 -5
-3 -10 -2 -10 4 0 5 15 12 33 14 17 2 37 5 43 5 5 1 14 -2 20 -7z m-121 -22
c-4 -5 -17 -14 -30 -19 -13 -5 -25 -19 -27 -32 -4 -20 -5 -21 -13 -5 -5 13 -1
25 15 43 23 23 68 35 55 13z m-85 -59 c0 -5 -5 -10 -11 -10 -5 0 -7 5 -4 10 3
6 8 10 11 10 2 0 4 -4 4 -10z m-38 -40 c3 -16 3 -30 2 -30 -9 0 -24 42 -19 50
10 16 12 12 17 -20z m61 -50 c3 -12 0 -20 -7 -20 -18 0 -25 10 -19 26 7 20 20
17 26 -6z m157 -3 c0 -6 8 -16 18 -23 26 -20 -4 -18 -39 3 -24 14 -32 15 -52
4 -18 -9 -23 -19 -19 -33 4 -18 2 -19 -16 -9 -23 12 -31 29 -25 51 3 11 20 15
69 15 35 1 64 -3 64 -8z m-188 -18 c17 -9 18 -13 7 -20 -21 -13 -26 -11 -32
11 -6 23 -3 24 25 9z m908 1 c0 -5 -2 -10 -4 -10 -3 0 -8 5 -11 10 -3 6 -1 10
4 10 6 0 11 -4 11 -10z m-1009 -15 c0 -5 -9 -11 -21 -13 -20 -3 -27 8 -13 22
10 9 34 3 34 -9z m192 -45 c9 0 17 -6 17 -14 0 -7 9 -16 20 -19 11 -3 20 -10
20 -16 0 -7 -10 -9 -25 -5 -21 5 -25 3 -25 -15 0 -24 -33 -45 -59 -36 -23 7
-54 52 -46 65 3 6 -3 10 -14 10 -11 0 -23 5 -26 10 -8 14 28 13 42 -1 13 -13
36 -3 28 12 -4 5 -1 9 4 9 6 0 11 7 11 17 0 15 1 15 18 0 10 -10 26 -17 35
-17z m361 -33 c8 -14 8 -20 -4 -27 -21 -14 -52 -8 -58 10 -4 12 -2 13 9 3 17
-17 37 -17 21 -1 -17 17 -15 40 4 36 9 -2 22 -11 28 -21z m506 -7 c0 -5 -5
-10 -11 -10 -5 0 -7 5 -4 10 3 6 8 10 11 10 2 0 4 -4 4 -10z m65 0 c3 -5 1
-10 -4 -10 -6 0 -11 5 -11 10 0 6 2 10 4 10 3 0 8 -4 11 -10z m-793 -82 c-7
-7 -12 -8 -12 -2 0 14 12 26 19 19 2 -3 -1 -11 -7 -17z m-78 -3 c4 -10 -1 -15
-16 -15 -17 0 -18 2 -8 15 7 8 14 15 15 15 2 0 5 -7 9 -15z m856 -212 c0 -19
-94 -113 -112 -113 -7 0 8 19 34 43 25 23 51 52 58 65 13 26 20 28 20 5z
m-1244 -14 c3 -6 20 -19 38 -30 17 -10 25 -19 17 -19 -8 0 -26 -10 -39 -22
-24 -23 -24 -23 -11 -1 18 30 -4 56 -43 51 -18 -3 -28 0 -28 8 0 8 8 10 22 6
14 -3 19 -2 14 6 -4 7 -1 12 8 12 8 0 18 -5 22 -11z m1204 0 c0 -24 -72 -71
-94 -63 -14 5 -15 9 -5 15 8 4 16 4 19 -1 3 -5 19 2 35 16 20 17 24 24 11 20
-15 -5 -17 -4 -8 7 12 15 42 19 42 6z m84 -41 c-18 -36 -63 -88 -76 -88 -5 0
-1 11 8 25 9 14 12 25 8 25 -11 -1 -51 -30 -40 -30 4 0 4 -6 -1 -12 -4 -7 -8
-17 -8 -22 0 -5 -19 -14 -42 -21 -24 -7 -43 -9 -43 -5 0 10 26 20 51 20 12 0
17 5 14 10 -4 7 -26 9 -53 6 l-47 -5 46 14 c41 14 154 97 144 107 -2 2 6 5 18
5 12 1 24 8 26 15 3 9 5 10 8 1 2 -6 -3 -27 -13 -45z m-1378 16 c-3 -8 1 -14
9 -14 8 0 15 -7 15 -15 0 -8 5 -15 11 -15 5 0 8 -4 4 -10 -9 -14 -57 11 -51
27 3 7 0 13 -6 13 -7 0 -7 4 1 13 6 8 7 18 3 22 -4 5 -1 5 6 1 7 -5 11 -14 8
-22z m149 16 c3 -5 -3 -10 -14 -10 -12 0 -21 5 -21 10 0 6 6 10 14 10 8 0 18
-4 21 -10z m1263 -48 c-53 -74 -97 -106 -185 -132 -35 -11 -41 -16 -31 -27 10
-12 6 -14 -23 -11 -36 3 -47 21 -29 48 8 12 12 12 18 2 22 -33 155 32 217 106
28 34 56 45 33 14z m-208 -42 c0 -5 -8 -10 -17 -10 -15 0 -16 2 -3 10 19 12
20 12 20 0z m248 -35 c-10 -23 -28 -34 -28 -18 0 7 31 43 36 43 2 0 -2 -11 -8
-25z m-53 -55 c-3 -6 -21 -17 -38 -26 l-32 -16 30 26 c31 26 51 34 40 16z
m-162 -302 c-2 -5 -25 -8 -51 -8 -26 0 -42 4 -35 8 15 9 92 9 86 0z m-769 -9
c-8 -14 -84 -49 -104 -48 -8 0 2 7 23 14 20 8 47 21 59 30 27 18 32 19 22 4z
m-110 -12 c-3 -9 -16 -12 -34 -9 -37 5 -29 22 10 22 20 0 28 -4 24 -13z m-35
-33 c10 -9 -45 -3 -59 6 -11 7 -5 8 20 4 19 -4 37 -8 39 -10z m111 -14 c-8 -5
-26 -9 -40 -9 l-25 1 25 8 c14 4 32 8 40 9 13 1 13 0 0 -9z m-102 -12 c-2 -6
-14 -15 -27 -20 -18 -6 -22 -5 -18 6 4 9 0 12 -13 9 -10 -3 -27 0 -37 5 -14 8
-5 11 40 11 37 0 57 -4 55 -11z m105 -622 c18 -11 23 -26 8 -26 -10 0 -160 96
-176 112 -9 9 117 -55 168 -86z m897 80 c0 -7 -178 -116 -190 -116 -20 0 29
35 111 79 77 42 79 43 79 37z m-832 -41 c17 -9 32 -20 32 -25 0 -11 -72 -70
-85 -70 -5 1 6 14 25 31 l35 30 -22 17 c-12 9 -33 25 -45 34 l-23 18 25 -9
c14 -5 40 -17 58 -26z m662 10 c0 -2 -19 -14 -41 -26 l-41 -21 28 -30 29 -31
-33 19 c-44 25 -60 44 -38 44 9 0 16 5 16 10 0 6 15 17 33 25 34 15 47 18 47
10z m-1128 -199 c39 -20 79 -36 89 -36 10 0 21 -4 24 -10 8 -13 -1 -13 -56 4
-91 28 -165 77 -199 131 -33 54 -23 53 25 -2 31 -35 69 -63 117 -87z m1645 85
c-41 -61 -154 -132 -209 -131 -17 1 -13 5 15 15 55 19 136 75 177 122 43 49
51 46 17 -6z m-1180 -228 c38 -18 52 -36 138 -175 54 -89 50 -101 -14 -44
l-24 21 5 -25 c3 -14 9 -33 13 -44 7 -16 4 -18 -23 -14 -29 4 -31 3 -25 -21 5
-24 2 -23 -38 16 -24 22 -60 50 -79 62 -31 18 -32 21 -12 21 13 0 33 -5 44
-11 22 -12 22 -14 1 55 -5 16 -3 17 15 7 33 -17 42 -13 42 19 0 63 -41 112
-111 134 l-44 14 38 1 c22 1 55 -7 74 -16z m659 6 c-77 -18 -126 -76 -126
-149 l0 -31 30 16 c40 21 41 20 24 -20 -19 -45 -18 -46 12 -35 41 16 63 11 29
-7 -16 -8 -49 -34 -72 -56 -38 -37 -43 -39 -43 -19 0 19 -4 21 -30 16 -35 -7
-35 -8 -14 41 16 39 10 40 -31 5 -11 -9 -29 -20 -39 -24 -19 -7 -19 -6 -2 13
10 11 46 67 80 123 68 115 98 139 176 137 l45 -1 -39 -9z m-733 -59 c3 -14 12
-19 27 -18 22 3 50 -25 38 -38 -11 -10 -80 10 -91 27 -11 18 -3 49 12 49 5 0
11 -9 14 -20z m757 -4 c0 -30 -15 -42 -62 -51 -41 -8 -44 -5 -28 26 8 14 17
18 34 13 18 -4 25 -1 29 15 7 29 27 26 27 -3z m-620 -392 c58 -113 79 -134
155 -156 62 -18 68 -32 10 -24 -57 7 -130 49 -151 86 -22 41 -114 242 -114
249 1 17 51 -60 100 -155z m526 100 c-14 -27 -35 -74 -46 -106 -41 -111 -97
-162 -196 -174 -57 -8 -51 6 11 24 79 23 102 45 155 152 50 102 89 165 97 157
2 -3 -7 -27 -21 -53z m-206 24 c45 -26 65 -64 55 -107 -8 -36 -22 -49 -66 -58
l-34 -6 33 37 c37 42 37 44 18 72 -13 18 -25 20 -98 19 -46 0 -89 -4 -96 -9
-22 -13 -14 -64 13 -82 14 -9 25 -20 25 -25 0 -17 -44 -9 -67 13 -28 26 -31
82 -7 117 38 54 155 68 224 29z m-121 -62 c21 -11 30 -11 59 1 28 12 36 12 43
2 5 -9 -4 -17 -33 -27 -33 -11 -49 -11 -85 -2 -35 10 -41 15 -32 26 14 17 17
17 48 0z m-19 -50 c0 -11 -19 -15 -25 -6 -3 5 1 10 9 10 9 0 16 -2 16 -4z
m120 -6 c0 -5 -4 -10 -9 -10 -6 0 -13 5 -16 10 -3 6 1 10 9 10 9 0 16 -4 16
-10z m29 -75 c11 -12 -29 -33 -73 -39 -51 -8 -94 0 -120 23 -17 15 -17 16 15
23 38 7 168 2 178 -7z m-135 -237 l21 -17 -23 6 c-22 5 -52 49 -52 75 1 7 8 0
17 -17 8 -16 25 -38 37 -47z m114 41 c-10 -29 -53 -67 -64 -56 -3 3 4 10 15
16 11 7 28 25 36 41 20 39 27 38 13 -1z m-68 -136 c0 -24 -4 -43 -10 -43 -6 0
-10 26 -10 58 0 40 3 53 10 42 5 -8 10 -34 10 -57z"/>
<path d="M2255 4320 c3 -5 8 -10 11 -10 2 0 4 5 4 10 0 6 -5 10 -11 10 -5 0
-7 -4 -4 -10z"/>
<path d="M2173 4273 c9 -2 23 -2 30 0 6 3 -1 5 -18 5 -16 0 -22 -2 -12 -5z"/>
<path d="M2348 4264 c-8 -14 7 -61 15 -47 4 6 3 21 -1 34 -5 12 -11 18 -14 13z"/>
<path d="M2300 4219 c0 -5 5 -7 10 -4 6 3 10 8 10 11 0 2 -4 4 -10 4 -5 0 -10
-5 -10 -11z"/>
<path d="M2319 4194 c-7 -9 -22 -20 -34 -24 -16 -7 -12 -9 18 -9 25 -1 40 4
44 15 9 24 -11 38 -28 18z"/>
<path d="M2072 4114 c-11 -12 -10 -15 4 -21 15 -6 15 -7 -2 -20 -18 -13 -17
-14 11 -11 26 3 30 8 33 36 3 25 0 32 -15 32 -10 -1 -24 -7 -31 -16z"/>
<path d="M1715 3740 c3 -5 8 -10 11 -10 2 0 4 5 4 10 0 6 -5 10 -11 10 -5 0
-7 -4 -4 -10z"/>
<path d="M2465 4353 c-14 -32 -12 -53 4 -53 14 0 14 -2 1 -11 -12 -9 -12 -10
3 -5 10 3 26 6 35 7 10 1 6 4 -8 8 -21 6 -24 12 -22 39 4 35 -2 41 -13 15z"/>
<path d="M2530 4273 c0 -12 5 -25 10 -28 13 -8 13 15 0 35 -8 12 -10 11 -10
-7z"/>
<path d="M2488 4213 c12 -2 30 -2 40 0 9 3 -1 5 -23 4 -22 0 -30 -2 -17 -4z"/>
<path d="M2550 4201 c0 -5 5 -13 10 -16 6 -3 10 -2 10 4 0 5 -4 13 -10 16 -5
3 -10 2 -10 -4z"/>
<path d="M2658 4156 c5 -41 -7 -50 -37 -30 -14 11 -20 22 -16 33 5 12 4 13 -6
4 -9 -9 -8 -17 4 -37 30 -44 82 -42 107 4 15 27 -4 60 -33 60 -20 0 -22 -4
-19 -34z"/>
<path d="M1946 4073 c-14 -14 -5 -31 14 -26 11 3 20 9 20 13 0 10 -26 20 -34
13z"/>
<path d="M2440 4033 c0 -5 5 -15 10 -23 8 -12 10 -11 10 8 0 12 -4 22 -10 22
-5 0 -10 -3 -10 -7z"/>
<path d="M2382 4005 c0 -16 2 -22 5 -12 2 9 2 23 0 30 -3 6 -5 -1 -5 -18z"/>
<path d="M2189 3963 c-13 -16 -12 -17 4 -4 16 13 21 21 13 21 -2 0 -10 -8 -17
-17z"/>
<path d="M2509 3905 c-53 -29 -56 -103 -6 -135 28 -17 147 -20 147 -3 0 6 3
19 6 27 5 12 2 15 -12 9 -12 -4 -15 -3 -10 5 4 7 14 12 22 12 16 0 19 33 3 61
-11 21 -45 18 -62 -5 -5 -6 -7 1 -4 17 4 25 2 27 -27 27 -17 -1 -43 -7 -57
-15z m68 -16 c-4 -15 1 -23 21 -30 18 -7 28 -7 30 0 4 13 22 15 22 2 0 -5 -9
-13 -20 -16 -11 -4 -18 -11 -15 -16 4 -5 1 -9 -4 -9 -6 0 -11 8 -11 18 0 14
-2 14 -9 3 -14 -22 -41 -5 -41 26 0 26 -1 27 -17 10 -17 -17 -17 -19 1 -33 29
-21 11 -30 -20 -10 -25 17 -26 17 -19 -4 5 -15 4 -20 -4 -16 -17 11 -13 31 9
51 11 10 17 22 13 28 -3 6 -1 7 5 3 7 -4 12 -2 12 3 0 6 12 11 26 11 22 0 25
-4 21 -21z m-40 -85 c-3 -3 -12 -4 -19 -1 -8 3 -5 6 6 6 11 1 17 -2 13 -5z
m73 -10 c0 -8 -4 -12 -10 -9 -5 3 -10 10 -10 16 0 5 5 9 10 9 6 0 10 -7 10
-16z m-26 -10 c5 -14 4 -15 -9 -4 -17 14 -19 20 -6 20 5 0 12 -7 15 -16z"/>
<path d="M3178 3893 c7 -3 16 -2 19 1 4 3 -2 6 -13 5 -11 0 -14 -3 -6 -6z"/>
<path d="M3210 3891 c0 -6 5 -13 10 -16 6 -3 10 1 10 9 0 9 -4 16 -10 16 -5 0
-10 -4 -10 -9z"/>
<path d="M1870 3635 c-8 -9 -8 -15 -2 -15 12 0 26 19 19 26 -2 2 -10 -2 -17
-11z"/>
<path d="M1942 3590 c-7 -11 -17 -20 -23 -20 -7 0 -7 6 2 17 12 14 10 14 -13
-1 -25 -17 -42 -36 -18 -21 6 3 10 1 10 -4 0 -6 -5 -11 -12 -11 -6 0 -9 -3 -6
-6 4 -3 17 0 30 7 21 11 22 11 10 -4 -7 -9 -27 -19 -43 -22 -16 -4 -29 -11
-29 -17 0 -12 57 0 86 19 24 15 40 61 27 74 -5 5 -14 0 -21 -11z"/>
<path d="M2895 3540 c-3 -5 -2 -10 4 -10 5 0 13 5 16 10 3 6 2 10 -4 10 -5 0
-13 -4 -16 -10z"/>
<path d="M2828 3533 c6 -2 18 -2 25 0 6 3 1 5 -13 5 -14 0 -19 -2 -12 -5z"/>
<path d="M1956 3506 c-51 -19 -87 -46 -106 -79 -14 -25 -13 -28 15 -56 17 -17
45 -32 66 -35 20 -3 44 -9 55 -13 16 -6 17 -5 6 9 -7 9 -26 18 -42 21 -16 4
-37 18 -46 33 -17 25 -17 27 1 40 14 11 21 11 26 2 6 -9 13 -9 34 0 14 7 24
16 21 21 -3 5 1 14 9 21 8 7 15 18 15 24 0 8 11 11 30 8 17 -2 30 -8 30 -12 0
-4 -13 -13 -30 -20 -19 -8 -30 -20 -30 -32 0 -17 2 -18 15 -8 14 12 15 10 11
-12 -6 -34 7 -53 30 -43 20 8 30 11 53 13 9 2 11 10 7 28 -4 16 -3 23 3 20 5
-4 13 -1 17 5 10 16 -22 38 -49 33 -16 -3 -14 -1 7 9 37 18 22 28 -52 33 -35
3 -72 -1 -96 -10z m-44 -58 c-7 -7 -12 -8 -12 -2 0 14 12 26 19 19 2 -3 -1
-11 -7 -17z m198 -3 c-7 -8 -17 -12 -22 -9 -5 3 -1 12 9 19 22 17 30 11 13
-10z m-153 0 c0 -8 -4 -15 -8 -15 -11 0 -20 16 -12 24 11 11 20 7 20 -9z m-77
-45 c0 -5 -4 -10 -10 -10 -5 0 -10 5 -10 10 0 6 5 10 10 10 6 0 10 -4 10 -10z"/>
<path d="M2828 3513 c6 -2 18 -2 25 0 6 3 1 5 -13 5 -14 0 -19 -2 -12 -5z"/>
<path d="M1900 3312 c0 -10 22 -32 32 -32 5 0 3 9 -4 20 -13 20 -28 27 -28 12z"/>
<path d="M2960 3261 c0 -17 18 -21 24 -6 3 9 0 15 -9 15 -8 0 -15 -4 -15 -9z"/>
<path d="M2910 3231 c0 -5 -10 -11 -22 -13 l-23 -3 23 -7 c16 -4 25 -1 32 13
7 13 7 19 0 19 -5 0 -10 -4 -10 -9z"/>
<path d="M2935 3220 c-3 -5 -2 -10 4 -10 5 0 13 5 16 10 3 6 2 10 -4 10 -5 0
-13 -4 -16 -10z"/>
<path d="M3335 2700 c-19 -8 -19 -9 2 -9 12 -1 25 4 28 9 7 12 -2 12 -30 0z"/>
<path d="M1725 2680 c11 -5 29 -9 40 -9 l20 0 -20 9 c-11 5 -29 9 -40 9 l-20
0 20 -9z"/>
<path d="M1280 1849 c0 -63 108 -105 393 -153 101 -17 152 -39 181 -79 61 -83
-29 -188 -132 -154 -63 21 -71 102 -13 127 38 15 67 6 86 -28 l14 -27 1 28 c0
21 -7 31 -34 43 -69 33 -146 -10 -146 -80 0 -84 107 -132 204 -92 26 11 72 58
92 94 1 1 16 -11 33 -27 38 -36 87 -51 156 -50 l50 1 -55 12 c-30 7 -69 20
-86 29 -35 18 -96 82 -118 124 -37 72 -102 103 -246 118 -209 21 -304 48 -344
96 -26 31 -36 36 -36 18z"/>
<path d="M3683 1820 c-24 -21 -55 -40 -70 -44 -94 -20 -139 -28 -228 -37 -181
-18 -230 -40 -289 -134 -57 -88 -99 -119 -196 -141 l-55 -13 72 2 c64 2 78 7
119 36 l47 33 36 -41 c40 -46 74 -61 132 -61 111 0 169 102 99 172 -27 27 -36
30 -71 25 -44 -6 -79 -31 -79 -55 0 -11 8 -8 28 11 35 34 61 34 97 2 21 -21
26 -31 21 -53 -10 -42 -41 -62 -98 -62 -66 0 -108 38 -108 98 0 81 60 119 225
142 207 30 290 57 339 108 43 46 27 55 -21 12z"/>
<path d="M1426 1611 c17 -14 64 -31 64 -22 0 4 -16 13 -37 19 -20 6 -32 8 -27
3z"/>
<path d="M3515 1600 l-20 -9 20 0 c11 0 27 4 35 9 13 9 13 10 0 9 -8 0 -24 -4
-35 -9z"/>
<path d="M1326 1491 c-4 -5 -4 -15 -1 -23 7 -18 -42 -64 -77 -72 -16 -3 -28
-13 -28 -20 0 -19 -69 -76 -92 -76 -35 0 -26 -18 22 -40 52 -24 72 -22 50 5
-11 14 -10 19 6 35 19 18 20 18 72 -5 38 -18 52 -29 52 -44 0 -20 -9 -25 -37
-22 -7 1 -13 -4 -13 -12 0 -13 79 -52 105 -52 6 0 9 25 7 62 -3 51 -1 63 15
71 14 9 16 13 6 23 -7 7 -13 32 -13 56 0 36 3 43 19 43 10 0 21 7 25 15 4 11
-10 22 -50 40 -65 29 -61 28 -68 16z m6 -131 c-4 -36 -7 -40 -26 -34 -39 12
-43 24 -13 50 38 33 43 31 39 -16z"/>
<path d="M3473 1414 c-48 -28 -55 -44 -18 -44 28 0 72 -51 67 -80 -2 -12 7
-21 27 -28 33 -12 55 -45 48 -73 -11 -40 17 -38 98 8 44 24 82 47 84 49 8 7
-38 94 -49 94 -5 0 -10 -13 -10 -30 0 -30 -29 -70 -51 -70 -17 0 -48 43 -49
68 0 12 -6 22 -13 22 -24 0 -69 56 -65 81 4 33 -19 34 -69 3z"/>
<path d="M1526 1381 c-4 -5 -3 -16 0 -25 8 -22 -17 -75 -39 -82 -13 -4 -17
-12 -13 -28 7 -27 -25 -82 -53 -91 -33 -10 -25 -22 26 -39 66 -23 76 -21 69 9
-9 34 19 84 47 85 4 0 7 -19 7 -43 0 -32 -5 -45 -21 -55 -27 -17 -18 -25 49
-47 58 -19 73 -15 54 15 -18 29 -15 97 3 104 14 5 14 9 -2 32 -16 25 -16 27 3
41 10 8 38 19 62 26 23 6 42 16 42 22 0 16 -93 47 -101 33 -4 -6 -5 -17 -2
-25 3 -8 -12 -20 -42 -33 -26 -11 -49 -19 -51 -17 -7 7 37 67 50 67 8 0 16 6
19 14 4 10 -8 19 -40 30 -54 19 -60 19 -67 7z"/>
<path d="M3285 1340 l-60 -28 36 -15 c37 -15 66 -63 56 -91 -4 -9 2 -17 14
-21 29 -10 52 -50 45 -80 -10 -40 14 -40 106 0 46 20 84 38 85 39 1 1 -4 22
-11 46 -15 52 -40 65 -44 24 -2 -33 -28 -64 -52 -64 -23 0 -53 46 -47 71 3 12
-1 20 -13 24 -26 8 -53 53 -47 80 7 41 -6 44 -68 15z"/>
<path d="M3113 1304 c-46 -11 -61 -19 -56 -30 3 -8 11 -14 19 -14 19 0 18 -64
-2 -94 -10 -16 -12 -26 -5 -31 16 -9 13 -78 -4 -101 -23 -30 -18 -37 23 -30
75 14 94 28 51 39 -15 4 -20 12 -17 28 2 18 13 25 55 34 48 11 54 10 70 -7 17
-19 17 -20 0 -33 -28 -20 -5 -26 57 -14 35 8 56 17 56 25 0 8 -4 14 -9 14 -16
0 -81 74 -81 93 0 9 -7 17 -16 17 -9 0 -32 16 -51 36 -27 26 -33 38 -24 47 12
12 15 37 4 36 -5 0 -36 -7 -70 -15z m64 -156 c-6 -4 -22 -8 -34 -8 -18 0 -23
6 -23 24 0 13 3 32 7 42 6 15 10 13 35 -16 20 -25 24 -36 15 -42z"/>
<path d="M1778 1284 c-19 -10 -32 -29 -41 -62 l-14 -47 55 -32 c62 -35 74 -50
62 -74 -24 -44 -70 -29 -94 31 -9 22 -19 40 -24 40 -10 0 -34 -88 -28 -99 9
-14 113 -34 141 -27 37 9 75 50 75 80 0 14 5 28 11 32 7 4 -14 23 -50 46 -49
31 -62 44 -59 61 2 16 11 23 31 25 35 4 53 -10 61 -48 3 -17 10 -30 15 -30 8
0 36 90 29 94 -7 5 -111 26 -126 26 -9 -1 -29 -7 -44 -16z"/>
<path d="M2898 1268 c-49 -10 -64 -32 -29 -41 12 -3 23 -19 30 -43 6 -21 9
-39 8 -40 -1 -1 -21 -5 -43 -9 l-42 -6 -6 37 c-5 22 -3 41 3 47 6 6 11 17 11
25 0 11 -12 12 -57 7 -70 -9 -81 -17 -50 -38 28 -18 42 -70 27 -97 -8 -15 -6
-21 9 -29 24 -13 32 -65 13 -92 -8 -11 -12 -23 -9 -26 11 -11 127 9 127 22 0
7 -8 15 -18 17 -12 4 -23 21 -29 46 -12 45 -6 52 47 52 24 0 29 -5 35 -36 4
-22 2 -41 -4 -47 -6 -6 -11 -17 -11 -25 0 -14 13 -14 103 4 32 7 36 24 7 31
-11 3 -23 17 -26 32 -3 14 -7 31 -9 37 -2 6 1 17 5 24 5 9 1 23 -11 38 -20 26
-26 77 -9 87 17 10 11 35 -7 34 -10 -1 -39 -6 -65 -11z"/>
<path d="M2090 1236 c0 -7 7 -19 15 -26 20 -16 19 -59 -1 -81 -12 -13 -13 -22
-5 -38 16 -29 13 -55 -9 -84 -31 -39 -25 -47 30 -47 50 0 64 12 40 36 -6 6
-10 41 -8 80 l3 69 32 -50 c18 -27 34 -54 37 -60 2 -5 25 13 51 40 39 42 45
46 41 25 -3 -14 -6 -40 -6 -58 0 -20 -8 -39 -20 -49 -38 -32 -25 -43 50 -43
70 0 83 7 55 30 -21 17 -19 80 3 96 14 10 15 15 5 25 -18 18 -16 78 2 85 21 9
19 44 -2 44 -10 0 -27 3 -38 5 -15 4 -30 -8 -65 -55 -24 -33 -46 -60 -47 -60
-1 0 -17 27 -35 59 -18 34 -42 62 -53 65 -38 10 -75 6 -75 -8z"/>
<path d="M2538 1233 c-36 -4 -53 -26 -27 -35 18 -6 0 -67 -27 -91 -16 -14 -21
-24 -14 -32 13 -16 -6 -74 -31 -97 -26 -23 -24 -42 4 -34 12 3 40 6 62 6 l40
0 -24 19 c-14 10 -22 25 -19 37 3 16 12 19 68 19 56 0 65 -3 68 -19 2 -10 -3
-23 -12 -28 -32 -18 -15 -28 49 -28 36 0 65 4 65 9 0 5 -16 33 -35 61 -26 39
-33 56 -25 65 8 10 6 15 -9 20 -30 9 -66 75 -52 97 24 38 16 41 -81 31z m42
-123 l20 -40 -35 0 c-19 0 -35 4 -35 9 0 12 21 71 26 71 2 0 13 -18 24 -40z"/>
<path d="M1293 961 c-100 -3 -185 -9 -189 -13 -4 -5 70 -8 165 -8 103 0 180
-4 192 -11 15 -7 24 -7 35 2 20 16 18 39 -3 37 -10 -1 -100 -4 -200 -7z"/>
<path d="M3503 957 c-3 -5 1 -16 10 -24 12 -12 19 -13 37 -3 12 6 40 11 63 9
23 -1 116 0 207 1 l165 3 -100 8 c-157 12 -376 15 -382 6z"/>
<path d="M1399 778 c-33 -46 -61 -104 -73 -153 -14 -56 -56 -82 -56 -34 0 27
-19 24 -52 -8 -15 -15 -28 -22 -28 -17 0 5 20 30 45 54 45 44 51 69 12 48 -12
-6 -49 -36 -81 -67 -49 -46 -58 -52 -52 -31 4 14 10 42 13 63 8 52 -11 49 -72
-13 -54 -55 -53 -65 1 -24 l34 26 0 -25 c0 -14 -7 -27 -15 -31 -16 -6 -21 -51
-6 -60 5 -4 23 5 39 19 29 24 30 24 35 5 7 -27 20 -25 60 10 33 28 35 29 40
10 6 -24 34 -26 59 -3 17 15 18 15 18 -10 0 -39 16 -41 44 -5 20 26 28 30 38
20 19 -19 34 -15 74 21 41 35 40 38 18 -40 -9 -32 21 -30 42 2 28 43 52 50 74
23 17 -21 21 -22 41 -9 19 11 23 11 31 -3 11 -19 49 -21 66 -4 17 17 15 31 -4
24 -9 -4 -23 -1 -30 5 -11 9 -10 16 11 41 29 34 34 78 9 78 -20 0 -51 -37 -59
-72 -4 -15 -13 -32 -20 -38 -12 -10 -17 -7 -25 14 -13 34 -42 34 -70 -1 l-21
-28 5 27 c3 14 9 33 12 42 4 10 -1 18 -11 22 -13 5 -27 -4 -52 -34 -37 -45
-73 -56 -73 -22 0 33 -25 23 -45 -17 -18 -35 -19 -36 -23 -14 -2 15 7 38 28
65 17 22 42 64 55 91 46 94 21 130 -36 53z m22 -45 c-10 -21 -27 -47 -36 -58
-16 -20 -16 -19 -9 5 8 29 55 102 61 96 2 -2 -5 -21 -16 -43z m290 -106 c-10
-9 -11 -8 -5 6 3 10 9 15 12 12 3 -3 0 -11 -7 -18z"/>
<path d="M3725 780 c-9 -17 -25 -66 -36 -108 -13 -50 -28 -86 -44 -102 -21
-21 -25 -22 -25 -7 0 27 22 111 31 121 5 6 9 28 9 50 l-1 41 -20 -27 c-16 -21
-29 -28 -55 -28 -24 0 -34 -5 -34 -15 0 -10 10 -15 30 -15 38 0 38 -8 -2 -61
-38 -48 -58 -60 -58 -31 0 35 -14 33 -52 -10 -40 -47 -48 -38 -28 31 14 51 3
51 -40 1 l-39 -45 -23 28 -23 29 -25 -20 -25 -20 3 40 c4 38 3 39 -17 29 -11
-7 -29 -24 -39 -39 l-17 -26 -5 34 -6 35 -42 -43 c-23 -24 -39 -48 -36 -54 4
-7 10 -5 16 6 16 28 27 17 22 -21 l-5 -38 38 43 c21 23 42 42 47 42 5 0 6 -18
2 -40 -7 -48 5 -51 34 -10 24 33 41 38 60 15 16 -20 39 -19 62 2 17 15 18 15
18 -11 0 -40 28 -45 58 -11 21 25 25 27 34 12 13 -24 23 -21 65 17 l38 34 -3
-49 c-4 -55 11 -65 43 -29 10 11 21 20 24 20 3 0 6 -34 6 -75 0 -122 36 -127
70 -9 11 37 19 52 29 48 8 -3 30 8 49 25 33 29 35 30 40 11 7 -27 36 -25 67 5
l25 24 -3 -39 c-5 -47 2 -49 39 -14 23 22 29 24 47 13 17 -10 23 -10 36 0 19
16 21 32 3 25 -8 -3 -19 2 -26 10 -11 13 -9 22 8 49 22 36 27 57 12 57 -5 0
-14 -14 -21 -30 -7 -17 -21 -35 -31 -41 -11 -5 -19 -17 -19 -27 0 -9 -5 -24
-11 -32 -19 -27 1 61 28 121 26 59 35 117 19 119 -6 1 -22 -29 -36 -67 -33
-84 -47 -112 -73 -140 -22 -25 -37 -22 -37 8 0 26 -22 24 -50 -6 -13 -14 -26
-23 -29 -20 -2 3 17 28 44 55 85 86 32 75 -59 -13 -34 -33 -48 -56 -61 -104
-10 -35 -22 -63 -26 -63 -22 0 0 129 40 244 22 63 27 111 11 121 -5 3 -16 -8
-25 -25z"/>
<path d="M2151 716 c-18 -47 -41 -96 -51 -109 -25 -31 -27 -56 -5 -37 14 12
15 8 9 -28 -5 -34 -4 -42 9 -42 8 0 24 12 35 28 17 22 23 25 33 15 20 -20 43
-15 69 12 l24 26 13 -26 c19 -36 45 -31 92 18 l42 42 -7 -42 c-3 -23 -4 -50 0
-59 6 -15 10 -14 36 11 29 28 30 28 30 7 0 -30 18 -28 53 6 27 25 29 26 41 10
17 -24 39 -23 61 2 27 30 33 24 24 -22 -11 -58 -11 -128 0 -128 5 0 22 37 37
83 34 104 31 99 58 82 12 -8 25 -12 28 -9 10 9 -33 75 -46 71 -6 -2 -19 -24
-28 -48 -24 -62 -22 -24 2 47 31 90 21 112 -17 39 -42 -77 -67 -110 -82 -101
-6 4 -11 19 -11 32 l0 26 -42 -33 -43 -34 49 58 c46 55 55 79 23 60 -8 -4 -43
-34 -77 -66 -35 -31 -65 -55 -67 -53 -8 8 20 118 33 131 14 13 16 75 3 75 -5
0 -13 -9 -19 -20 -8 -14 -21 -20 -45 -20 -24 0 -35 -5 -35 -15 0 -9 9 -15 25
-15 14 0 25 -3 25 -7 0 -12 -40 -76 -63 -100 -29 -32 -44 -29 -51 12 -4 19
-10 35 -14 35 -3 0 -23 -17 -44 -37 -30 -29 -41 -34 -50 -25 -10 10 -9 19 1
45 7 17 15 41 17 52 4 17 2 16 -13 -5 -10 -13 -25 -32 -33 -40 -9 -9 -22 -30
-29 -48 -8 -18 -16 -31 -18 -28 -6 6 33 129 53 168 15 30 19 88 5 88 -4 0 -23
-38 -40 -84z"/>
<path d="M2308 739 c-18 -10 -26 -49 -10 -49 15 0 29 16 36 38 8 24 1 27 -26
11z"/>
<path d="M1890 604 c0 -22 4 -25 28 -22 19 2 28 9 30 26 3 19 -1 22 -27 22
-27 0 -31 -4 -31 -26z"/>
<path d="M2920 605 c0 -20 5 -25 25 -25 20 0 25 5 25 25 0 20 -5 25 -25 25
-20 0 -25 -5 -25 -25z"/>
</g>


<defs>
    <filter id="f1" x="0" y="0" width="150%" height="150%">
        <feDropShadow dx="5" dy="5" stdDeviation="3" flood-color="hsl(38, 61%, 73%)" flood-opacity="0.8"/>
    </filter>
</defs>
</svg>
